<svg 
 xmlns="http://www.w3.org/2000/svg"
 xmlns:xlink="http://www.w3.org/1999/xlink"
 width="67px" height="68px">
<path fill-rule="evenodd"  fill="rgb(85, 161, 255)"
 d="M65.461,63.564 L63.501,65.524 C61.534,67.491 58.343,67.491 56.376,65.524 L44.049,53.197 C39.624,55.969 34.393,57.573 28.787,57.573 C12.888,57.573 -0.000,44.685 -0.000,28.787 C-0.000,12.888 12.888,-0.000 28.787,-0.000 C44.685,-0.000 57.573,12.888 57.573,28.787 C57.573,34.426 55.951,39.685 53.148,44.126 L65.461,56.439 C67.428,58.406 67.428,61.597 65.461,63.564 ZM28.787,7.967 C17.288,7.967 7.967,17.288 7.967,28.787 C7.967,40.285 17.288,49.606 28.787,49.606 C40.285,49.606 49.606,40.285 49.606,28.787 C49.606,17.288 40.285,7.967 28.787,7.967 Z"/>
</svg>