<svg 
 xmlns="http://www.w3.org/2000/svg"
 xmlns:xlink="http://www.w3.org/1999/xlink"
 width="76px" height="50px">
<path fill-rule="evenodd"  fill="rgb(85, 161, 255)"
 d="M52.217,16.227 C46.653,16.227 42.140,20.740 42.140,26.304 C42.140,31.866 46.653,36.383 52.217,36.383 C57.778,36.383 62.285,31.866 62.285,26.304 C62.285,20.740 57.778,16.227 52.217,16.227 ZM52.570,30.398 C50.240,30.398 48.357,28.513 48.357,26.185 C48.357,23.858 50.240,21.973 52.570,21.973 C54.897,21.973 56.781,23.858 56.781,26.185 C56.781,28.513 54.897,30.398 52.570,30.398 ZM26.132,3.679 C24.685,3.679 23.500,2.852 23.500,1.840 C23.500,0.829 22.316,0.001 20.868,0.001 L11.159,0.001 C9.711,0.001 8.527,0.829 8.527,1.840 C8.527,2.852 7.343,3.679 5.895,3.679 L2.627,3.679 C1.179,3.679 -0.005,4.864 -0.005,6.311 L-0.005,47.128 C-0.005,48.576 1.179,49.761 2.627,49.761 L73.373,49.761 C74.820,49.761 76.005,48.576 76.005,47.128 L76.005,6.311 C76.005,4.864 74.820,3.679 73.373,3.679 L26.132,3.679 ZM23.500,14.734 C23.500,16.182 22.316,17.366 20.868,17.366 L11.159,17.366 C9.711,17.366 8.527,16.182 8.527,14.734 L8.527,13.113 C8.527,11.666 9.711,10.481 11.159,10.481 L20.868,10.481 C22.316,10.481 23.500,11.666 23.500,13.113 L23.500,14.734 ZM52.217,41.903 C43.604,41.903 36.614,34.922 36.614,26.304 C36.614,17.693 43.604,10.703 52.217,10.703 C60.833,10.703 67.816,17.693 67.816,26.304 C67.816,34.922 60.833,41.903 52.217,41.903 Z"/>
</svg>