<svg 
 xmlns="http://www.w3.org/2000/svg"
 xmlns:xlink="http://www.w3.org/1999/xlink"
 width="79px" height="71px">
<path fill-rule="evenodd"  fill="rgb(85, 161, 255)"
 d="M38.366,0.018 C35.613,0.018 33.356,1.929 32.845,4.541 L32.702,4.541 L14.580,24.941 L23.641,24.941 L36.176,10.847 C36.850,11.134 37.592,11.347 38.366,11.347 C39.153,11.347 39.880,11.134 40.569,10.847 L53.090,24.941 L62.165,24.941 L44.030,4.541 L43.885,4.541 C43.390,1.929 41.132,0.018 38.366,0.018 L38.366,0.018 ZM5.521,29.467 C3.008,29.467 0.983,31.491 0.983,34.004 L0.983,36.269 C0.983,38.660 2.818,40.541 5.167,40.731 L12.312,65.721 C14.580,70.256 16.850,70.256 19.103,70.256 L59.895,70.256 C62.165,70.256 64.418,70.256 66.688,65.721 L73.847,40.731 C76.180,40.541 78.017,38.660 78.017,36.269 L78.017,34.004 C78.017,31.491 76.003,29.467 73.493,29.467 L5.521,29.467 L5.521,29.467 ZM18.266,40.795 L19.393,40.795 C21.905,40.795 24.383,42.687 24.913,45.044 L28.099,59.140 C28.632,61.507 27.005,63.453 24.493,63.453 L23.352,63.453 C20.843,63.453 18.365,61.507 17.833,59.140 L14.646,45.044 C14.117,42.687 15.753,40.795 18.266,40.795 L18.266,40.795 ZM39.507,40.795 C42.017,40.795 44.030,42.820 44.030,45.333 L44.030,58.927 C44.030,61.439 42.017,63.453 39.507,63.453 C36.994,63.453 34.970,61.439 34.970,58.927 L34.970,45.333 C34.970,42.820 36.994,40.795 39.507,40.795 L39.507,40.795 ZM59.607,40.795 L60.748,40.795 C63.258,40.795 64.883,42.687 64.353,45.044 L61.167,59.140 C60.635,61.507 58.159,63.453 55.647,63.453 L54.506,63.453 C51.997,63.453 50.371,61.507 50.901,59.140 L54.087,45.044 C54.619,42.687 57.095,40.795 59.607,40.795 L59.607,40.795 Z"/>
</svg>