<svg 
 xmlns="http://www.w3.org/2000/svg"
 xmlns:xlink="http://www.w3.org/1999/xlink"
 width="98px" height="98px">
<path fill-rule="evenodd"  fill="rgb(85, 161, 255)"
 d="M49.007,0.021 C21.965,0.021 0.021,21.965 0.021,49.005 C0.021,76.035 21.965,97.979 49.007,97.979 C76.035,97.979 97.979,76.035 97.979,49.005 C97.979,21.965 76.035,0.021 49.007,0.021 L49.007,0.021 ZM49.007,5.005 C66.396,5.005 81.424,15.146 88.563,29.799 L88.563,29.894 C88.604,30.410 88.660,30.936 88.646,31.495 C89.007,31.786 89.452,32.285 89.896,32.828 C90.896,35.356 91.590,38.009 92.118,40.729 C91.701,41.120 91.146,41.396 90.243,41.450 C85.702,37.870 90.146,45.382 92.646,44.021 C92.826,45.646 93.007,47.328 93.007,49.005 C93.007,59.896 88.979,69.771 82.424,77.450 C82.424,77.173 82.493,76.828 82.604,76.285 C85.660,72.576 85.090,65.259 78.868,66.062 C75.632,68.604 71.146,71.868 67.215,68.116 C63.118,64.424 65.021,58.314 67.313,54.162 C69.604,50.826 70.354,45.894 74.424,44.201 C78.437,45.120 83.354,44.842 84.826,39.939 C86.076,37.741 85.368,37.005 84.201,36.465 C84.076,36.424 84.007,36.424 83.938,36.384 C82.604,35.824 80.910,35.380 80.729,33.450 C81.924,31.396 79.396,27.189 78.424,30.951 C80.493,33.297 80.965,40.340 76.021,37.717 C77.785,40.536 69.646,38.729 71.215,42.687 C72.507,46.993 63.868,49.425 66.327,43.939 C67.715,39.896 65.688,33.826 69.271,31.228 C69.229,31.104 69.590,30.563 69.438,31.132 C69.562,31.050 69.660,30.936 69.799,30.868 C72.923,28.713 65.826,22.243 66.243,26.243 C69.299,27.840 67.618,31.064 64.646,29.452 C61.521,27.910 60.382,19.342 64.729,19.939 C68.007,20.370 64.882,16.910 63.396,15.228 C63.243,16.007 63.007,15.075 63.132,14.965 C63.063,14.882 62.923,14.759 62.854,14.687 C63.271,9.535 54.687,14.047 53.257,9.451 C47.854,6.772 41.674,6.620 35.660,7.050 C37.965,6.314 40.327,5.884 42.771,5.535 C43.007,5.507 43.243,5.479 43.479,5.451 C44.146,5.382 44.826,5.297 45.438,5.187 C46.604,5.090 47.799,5.005 48.993,5.005 L49.007,5.005 ZM30.604,10.868 C36.743,12.910 27.493,19.410 32.118,21.979 C32.590,21.965 32.965,22.090 33.354,22.243 C33.479,22.118 33.521,22.186 33.535,22.339 C35.604,23.299 36.048,26.257 32.646,26.062 C27.938,24.729 26.076,34.783 30.687,33.535 C32.382,28.799 37.493,30.799 38.424,34.951 C41.173,39.228 35.549,39.189 33.618,41.005 C35.562,44.509 30.201,42.660 28.201,44.384 C24.368,45.229 23.187,51.050 19.840,51.228 C19.701,45.134 9.549,47.189 11.215,52.729 C13.382,54.424 16.271,56.174 15.840,59.757 C15.674,67.312 24.965,64.828 29.090,68.828 C34.160,71.050 37.410,75.620 41.882,78.606 C45.757,77.287 52.923,80.967 49.090,85.618 C46.799,87.313 44.132,88.799 41.354,89.799 L41.354,89.894 C39.674,90.491 37.868,90.911 36.104,91.050 C32.687,89.995 29.438,88.509 26.424,86.687 C26.410,86.660 26.437,86.630 26.424,86.606 C25.049,82.606 21.368,80.132 18.868,76.910 C17.549,75.590 17.368,74.104 17.438,72.561 C17.465,72.550 17.410,72.479 17.438,72.465 C17.604,69.910 18.507,67.243 16.646,64.910 C13.743,60.062 10.090,55.620 8.201,50.243 C7.993,44.689 7.688,39.356 9.535,34.062 C13.646,25.618 23.896,16.604 30.604,10.868 L30.604,10.868 ZM43.674,17.717 C43.840,17.703 43.993,17.757 44.201,17.799 C45.271,17.799 44.910,18.993 44.201,19.313 C41.674,21.688 41.049,18.215 43.132,17.799 C43.285,17.771 43.493,17.717 43.674,17.717 L43.674,17.717 ZM47.132,18.507 C48.951,18.286 50.785,19.021 51.312,21.173 C52.590,26.271 47.507,29.564 45.618,33.717 C40.937,32.408 45.882,27.243 43.840,24.729 C41.035,21.826 44.090,18.898 47.132,18.507 L47.132,18.507 ZM37.979,23.576 C40.937,23.396 40.368,29.938 37.896,30.951 C35.729,28.967 38.576,26.047 37.354,23.757 C37.590,23.688 37.785,23.590 37.979,23.576 L37.979,23.576 ZM63.493,34.062 C64.465,34.009 66.632,35.007 66.424,36.384 C65.493,37.951 62.868,37.812 63.840,35.495 C62.785,34.507 62.910,34.104 63.493,34.062 L63.493,34.062 ZM37.896,40.828 C39.049,40.618 41.535,41.493 39.229,42.868 C39.965,42.090 38.687,42.382 38.507,42.424 C37.021,41.396 37.187,40.953 37.896,40.828 L37.896,40.828 ZM28.563,44.465 C28.882,44.509 28.451,44.937 28.021,44.828 L27.938,44.828 C27.868,44.799 27.812,44.703 27.757,44.646 C28.174,44.479 28.424,44.451 28.563,44.465 L28.563,44.465 ZM19.493,56.828 C19.688,56.771 19.910,56.799 20.201,56.828 C20.437,56.852 20.757,56.924 21.007,57.005 C21.007,57.049 20.993,57.021 21.007,57.090 C21.965,57.425 22.854,58.175 22.424,59.396 C21.688,59.688 20.910,59.160 20.465,58.606 C18.868,57.618 18.896,56.995 19.493,56.828 L19.493,56.828 Z"/>
</svg>