<svg aria-hidden="true" style="position: absolute; width: 0; height: 0; overflow: hidden;" version="1.1" xmlns="http://www.w3.org/2000/svg" xmlns:xlink="http://www.w3.org/1999/xlink">
<defs>
<symbol id="icon-Find" viewBox="0 0 32 32">
<title>Find</title>
<path d="M30.805 29.912l-0.922 0.922c-0.926 0.926-2.427 0.926-3.353 0l-5.801-5.801c-2.082 1.304-4.544 2.059-7.182 2.059-7.482 0-13.547-6.065-13.547-13.546s6.065-13.547 13.547-13.547c7.481 0 13.546 6.065 13.546 13.547 0 2.654-0.763 5.128-2.082 7.218l5.794 5.794c0.926 0.926 0.926 2.427 0 3.353zM13.547 3.749c-5.411 0-9.798 4.386-9.798 9.798s4.386 9.797 9.798 9.797c5.411 0 9.797-4.386 9.797-9.797s-4.386-9.798-9.797-9.798z"></path>
</symbol>
<symbol id="icon-Photography" viewBox="0 0 49 32">
<title>Photography</title>
<path d="M33.419 10.385c-3.561 0-6.449 2.888-6.449 6.449 0 3.56 2.888 6.451 6.449 6.451 3.559 0 6.444-2.891 6.444-6.451 0-3.561-2.884-6.449-6.444-6.449zM33.645 19.455c-1.491 0-2.696-1.206-2.696-2.696s1.205-2.696 2.696-2.696c1.489 0 2.695 1.206 2.695 2.696s-1.206 2.696-2.695 2.696zM16.724 2.355c-0.926 0-1.684-0.529-1.684-1.177s-0.758-1.177-1.684-1.177h-6.214c-0.927 0-1.684 0.53-1.684 1.177s-0.758 1.177-1.684 1.177h-2.092c-0.927 0-1.684 0.758-1.684 1.684v26.123c0 0.927 0.758 1.685 1.684 1.685h45.277c0.926 0 1.684-0.758 1.684-1.685v-26.123c0-0.926-0.758-1.684-1.684-1.684h-30.234zM15.040 9.43c0 0.927-0.758 1.684-1.684 1.684h-6.214c-0.927 0-1.684-0.758-1.684-1.684v-1.037c0-0.926 0.758-1.684 1.684-1.684h6.214c0.927 0 1.684 0.758 1.684 1.684v1.037zM33.419 26.818c-5.512 0-9.986-4.468-9.986-9.983 0-5.511 4.474-9.985 9.986-9.985 5.514 0 9.983 4.474 9.983 9.985 0 5.516-4.469 9.983-9.983 9.983z"></path>
</symbol>
<symbol id="icon-Shopping" viewBox="0 0 36 32">
<title>Shopping</title>
<path d="M17.292 0.008c-1.241 0-2.258 0.861-2.488 2.039h-0.064l-8.168 9.194h4.084l5.65-6.352c0.304 0.129 0.638 0.225 0.987 0.225 0.355 0 0.682-0.096 0.993-0.225l5.643 6.352h4.090l-8.174-9.194h-0.065c-0.223-1.177-1.241-2.039-2.487-2.039v0zM2.488 13.281c-1.133 0-2.045 0.912-2.045 2.045v1.021c0 1.078 0.827 1.925 1.886 2.011l3.22 11.263c1.022 2.044 2.045 2.044 3.061 2.044h18.385c1.023 0 2.039 0 3.062-2.044l3.227-11.263c1.051-0.086 1.879-0.933 1.879-2.011v-1.021c0-1.133-0.908-2.045-2.039-2.045h-30.635zM8.233 18.386h0.508c1.132 0 2.249 0.853 2.488 1.915l1.436 6.353c0.24 1.067-0.493 1.944-1.625 1.944h-0.514c-1.131 0-2.248-0.877-2.487-1.944l-1.436-6.353c-0.238-1.062 0.499-1.915 1.632-1.915v0zM17.806 18.386c1.131 0 2.039 0.913 2.039 2.045v6.127c0 1.132-0.907 2.040-2.039 2.040-1.133 0-2.045-0.908-2.045-2.040v-6.127c0-1.133 0.912-2.045 2.045-2.045v0zM26.865 18.386h0.514c1.131 0 1.864 0.853 1.625 1.915l-1.436 6.353c-0.24 1.067-1.356 1.944-2.488 1.944h-0.514c-1.131 0-1.864-0.877-1.625-1.944l1.436-6.353c0.24-1.062 1.356-1.915 2.488-1.915v0z"></path>
</symbol>
<symbol id="icon-site" viewBox="0 0 32 32">
<title>site</title>
<path d="M16.002 0.007c-8.83 0-15.995 7.165-15.995 15.995 0 8.826 7.165 15.991 15.995 15.991 8.825 0 15.991-7.165 15.991-15.992 0-8.829-7.165-15.995-15.991-15.995v0zM16.002 1.634c5.678 0 10.585 3.311 12.916 8.096v0.031c0.013 0.168 0.032 0.34 0.027 0.523 0.118 0.095 0.263 0.258 0.408 0.435 0.327 0.825 0.553 1.692 0.726 2.58-0.136 0.128-0.317 0.218-0.612 0.235-1.483-1.169-0.032 1.284 0.785 0.839 0.059 0.531 0.118 1.080 0.118 1.627 0 3.556-1.315 6.781-3.456 9.288 0-0.090 0.023-0.203 0.059-0.38 0.998-1.211 0.812-3.6-1.22-3.338-1.057 0.83-2.521 1.896-3.805 0.671-1.338-1.206-0.716-3.201 0.032-4.556 0.748-1.089 0.993-2.7 2.322-3.253 1.31 0.3 2.916 0.209 3.397-1.392 0.408-0.718 0.177-0.958-0.204-1.134-0.041-0.013-0.063-0.013-0.086-0.026-0.436-0.183-0.989-0.328-1.048-0.958 0.39-0.671-0.435-2.044-0.753-0.816 0.676 0.766 0.83 3.066-0.785 2.209 0.576 0.921-2.082 0.33-1.569 1.623 0.422 1.406-2.399 2.2-1.596 0.409 0.453-1.32-0.209-3.302 0.961-4.151-0.014-0.040 0.104-0.217 0.055-0.031 0.041-0.027 0.073-0.064 0.118-0.086 1.020-0.704-1.297-2.816-1.161-1.51 0.998 0.521 0.449 1.574-0.521 1.048-1.020-0.504-1.392-3.301 0.027-3.106 1.070 0.141 0.050-0.989-0.435-1.538-0.050 0.254-0.127-0.050-0.086-0.086-0.023-0.027-0.068-0.067-0.091-0.091 0.136-1.682-2.667-0.209-3.134-1.71-1.764-0.875-3.782-0.924-5.746-0.784 0.753-0.24 1.524-0.381 2.322-0.495 0.077-0.009 0.154-0.018 0.231-0.027 0.218-0.023 0.44-0.050 0.64-0.086 0.381-0.032 0.771-0.059 1.161-0.059h0.005zM9.993 3.549c2.005 0.667-1.016 2.789 0.494 3.628 0.154-0.005 0.277 0.036 0.404 0.086 0.041-0.041 0.055-0.019 0.059 0.031 0.676 0.313 0.821 1.279-0.29 1.216-1.537-0.435-2.145 2.848-0.64 2.44 0.553-1.546 2.222-0.893 2.526 0.462 0.898 1.397-0.939 1.384-1.569 1.977 0.635 1.144-1.116 0.54-1.769 1.103-1.252 0.276-1.637 2.177-2.73 2.235-0.045-1.99-3.36-1.319-2.816 0.49 0.708 0.553 1.651 1.125 1.51 2.295-0.054 2.467 2.98 1.656 4.327 2.962 1.655 0.726 2.717 2.218 4.177 3.193 1.265-0.431 3.605 0.771 2.354 2.29-0.748 0.553-1.619 1.039-2.526 1.365v0.031c-0.549 0.195-1.138 0.332-1.714 0.377-1.116-0.345-2.177-0.83-3.161-1.425-0.005-0.009 0.004-0.019 0-0.026-0.449-1.306-1.651-2.114-2.467-3.166-0.431-0.431-0.49-0.916-0.467-1.42 0.009-0.004-0.009-0.027 0-0.031 0.054-0.834 0.349-1.705-0.259-2.467-0.948-1.583-2.141-3.033-2.758-4.789-0.068-1.814-0.167-3.555 0.436-5.284 1.342-2.757 4.689-5.701 6.88-7.574v0zM14.261 5.785c0.054-0.005 0.104 0.013 0.172 0.027 0.349 0 0.232 0.39 0 0.494-0.825 0.776-1.029-0.359-0.349-0.494 0.050-0.009 0.118-0.027 0.177-0.027v0zM15.39 6.043c0.594-0.072 1.193 0.168 1.365 0.871 0.417 1.665-1.242 2.74-1.859 4.096-1.528-0.427 0.086-2.114-0.581-2.935-0.916-0.948 0.082-1.904 1.075-2.032v0zM12.401 7.698c0.966-0.059 0.78 2.077-0.027 2.408-0.708-0.648 0.222-1.601-0.177-2.349 0.077-0.023 0.141-0.055 0.204-0.059v0zM20.732 11.122c0.317-0.017 1.025 0.309 0.957 0.758-0.304 0.512-1.161 0.466-0.844-0.29-0.345-0.323-0.304-0.454-0.113-0.468v0zM12.374 13.332c0.377-0.069 1.188 0.217 0.435 0.666 0.24-0.254-0.177-0.159-0.236-0.145-0.485-0.336-0.431-0.48-0.2-0.521v0zM9.327 14.519c0.104 0.014-0.037 0.154-0.177 0.119h-0.027c-0.023-0.009-0.041-0.041-0.059-0.059 0.136-0.055 0.218-0.064 0.263-0.059v0zM6.365 18.556c0.064-0.019 0.136-0.009 0.231 0 0.077 0.008 0.182 0.031 0.263 0.058 0 0.014-0.005 0.005 0 0.028 0.313 0.109 0.603 0.354 0.463 0.753-0.24 0.095-0.494-0.077-0.64-0.258-0.521-0.323-0.512-0.526-0.317-0.581v0z"></path>
</symbol>
</defs>
</svg>
